<?xml version="1.0" encoding="UTF-8"?>
<svg version="1.1" xmlns="http://www.w3.org/2000/svg" width="1559" height="364">
<path d="M0 0 C514.47 0 1028.94 0 1559 0 C1559 120.12 1559 240.24 1559 364 C1044.53 364 530.06 364 0 364 C0 243.88 0 123.76 0 0 Z " fill="#FEFEFE" transform="translate(0,0)"/>
<path d="M0 0 C17.49 0 34.98 0 53 0 C53 22.44 53 44.88 53 68 C66.44814005 67.96039484 66.44814005 67.96039484 79.89624023 67.90991211 C81.57535743 67.906993 83.25447533 67.90444443 84.93359375 67.90234375 C85.81374146 67.89722778 86.69388916 67.89211182 87.60070801 67.88684082 C89.73413879 67.88653104 91.86748314 67.93755933 94 68 C95 69 95 69 95.12025452 70.98048401 C95.11803391 71.84874313 95.11581329 72.71700226 95.11352539 73.61157227 C95.11344986 74.59251358 95.11337433 75.5734549 95.11329651 76.5841217 C95.10813522 77.6507756 95.10297394 78.7174295 95.09765625 79.81640625 C95.09553383 81.44569313 95.09553383 81.44569313 95.09336853 83.1078949 C95.08775048 86.59279075 95.07519492 90.07762342 95.0625 93.5625 C95.05748733 95.91861887 95.05292402 98.27473874 95.04882812 100.63085938 C95.03777518 106.42059743 95.02049846 112.21028799 95 118 C105.395 117.505 105.395 117.505 116 117 C116 97.86 116 78.72 116 59 C122.27 58.67 128.54 58.34 135 58 C135.33 38.86 135.66 19.72 136 0 C153.82 0 171.64 0 190 0 C190 19.14 190 38.28 190 58 C200.89 58 211.78 58 223 58 C223.06058594 53.89691406 223.12117188 49.79382812 223.18359375 45.56640625 C223.23453032 42.30310834 223.28645179 39.03982943 223.33904266 35.77655792 C223.39436053 32.32722675 223.44792621 28.8778884 223.49731445 25.4284668 C223.55400801 21.47435474 223.61857495 17.52039056 223.68359375 13.56640625 C223.70030624 12.32476212 223.71701874 11.08311798 223.73423767 9.80384827 C223.75418289 8.66274094 223.77412811 7.52163361 223.79467773 6.34594727 C223.81799416 4.83037987 223.81799416 4.83037987 223.84178162 3.28419495 C224 1 224 1 225 0 C226.68801985 -0.09353163 228.37995207 -0.11744791 230.07055664 -0.11352539 C231.15160172 -0.11344986 232.23264679 -0.11337433 233.34645081 -0.11329651 C235.110485 -0.10555458 235.110485 -0.10555458 236.91015625 -0.09765625 C238.10732773 -0.0962413 239.30449921 -0.09482635 240.53794861 -0.09336853 C244.37949066 -0.08774979 248.22097543 -0.07519411 252.0625 -0.0625 C254.65950437 -0.05748741 257.25650965 -0.05292409 259.85351562 -0.04882812 C266.23569679 -0.03777427 272.6178443 -0.02101792 279 0 C280.27171591 3.81514772 280.1483435 7.40128034 280.125 11.375 C280.12234131 12.17413818 280.11968262 12.97327637 280.11694336 13.79663086 C279.96497524 33.03502476 279.96497524 33.03502476 278 35 C275.4672235 35.07320163 272.96896082 35.09227569 270.4375 35.0625 C267.983125 35.041875 265.52875 35.02125 263 35 C263 42.59 263 50.18 263 58 C265.05468506 57.99476318 267.10937012 57.98952637 269.22631836 57.98413086 C275.99970199 57.96759328 282.7730865 57.9565281 289.54648495 57.94818783 C293.65494285 57.94295954 297.76338014 57.93586287 301.87182617 57.92456055 C305.83346828 57.91372975 309.79509052 57.90772276 313.75674629 57.90512276 C315.27148311 57.90326886 316.78621879 57.8996489 318.30094719 57.89426994 C320.41541813 57.88705693 322.52980594 57.88600917 324.64428711 57.88647461 C325.85007919 57.884254 327.05587128 57.88203339 328.29820251 57.87974548 C331 58 331 58 332 59 C332.09839214 60.5293463 332.12798539 62.06319566 332.12939453 63.59570312 C332.13254669 64.57341675 332.13569885 65.55113037 332.13894653 66.55847168 C332.13591019 68.15374695 332.13591019 68.15374695 332.1328125 69.78125 C332.13424759 71.40697937 332.13424759 71.40697937 332.13571167 73.06555176 C332.13639365 75.3622239 332.13453811 77.65889795 332.13037109 79.95556641 C332.12502312 83.48474428 332.1303155 87.01379487 332.13671875 90.54296875 C332.13605797 92.76822945 332.13477682 94.99349007 332.1328125 97.21875 C332.13483673 98.28226685 332.13686096 99.34578369 332.13894653 100.44152832 C332.13579437 101.41924194 332.13264221 102.39695557 332.12939453 103.40429688 C332.12820114 104.70216125 332.12820114 104.70216125 332.12698364 106.02624512 C332 108 332 108 331 109 C327.53828537 109.38760511 324.04216762 109.43456718 320.5625 109.5625 C319.45406738 109.6049585 318.34563477 109.64741699 317.20361328 109.69116211 C299.14527809 110.28973438 281.06520191 110.07676431 263 110 C263 121.55 263 133.1 263 145 C279.83 145 296.66 145 314 145 C314.0309375 151.1565625 314.0309375 151.1565625 314.0625 157.4375 C314.071604 158.69232178 314.08070801 159.94714355 314.09008789 161.23999023 C314.1122099 170.57476493 313.55138147 179.62651504 313 189 C296.5 189 280 189 263 189 C262.67 201.21 262.34 213.42 262 226 C279.49 226 296.98 226 315 226 C314.67 240.19 314.34 254.38 314 269 C310.37017851 269.7259643 307.70786056 270.12320178 304.11791992 270.11352539 C303.17732224 270.11344986 302.23672455 270.11337433 301.2676239 270.11329651 C300.2653627 270.10813522 299.2631015 270.10297394 298.23046875 270.09765625 C296.67625969 270.09553383 296.67625969 270.09553383 295.09065247 270.09336853 C291.78957196 270.08778242 288.48855992 270.07523242 285.1875 270.0625 C282.94596452 270.05748321 280.70442798 270.05292061 278.46289062 270.04882812 C272.97521299 270.03866952 267.4876829 270.01909128 262 270 C262 280.89 262 291.78 262 303 C266.08375 302.835 270.1675 302.67 274.375 302.5 C287.85445496 302.01354433 301.32513837 301.8876677 314.8125 301.875 C315.75961853 301.87250244 316.70673706 301.87000488 317.68255615 301.86743164 C320.37825251 301.86158275 323.07383385 301.86300696 325.76953125 301.8671875 C326.99717445 301.86421158 326.99717445 301.86421158 328.24961853 301.86117554 C333.88471462 301.88471462 333.88471462 301.88471462 335 303 C335.09304018 304.47354348 335.11746265 305.95150591 335.11352539 307.42797852 C335.11344986 308.36887833 335.11337433 309.30977814 335.11329651 310.27919006 C335.10813522 311.30209641 335.10297394 312.32500275 335.09765625 313.37890625 C335.09553383 314.941605 335.09553383 314.941605 335.09336853 316.53587341 C335.0877508 319.87811094 335.0751953 323.22028257 335.0625 326.5625 C335.05748728 328.82226466 335.05292398 331.08203037 335.04882812 333.34179688 C335.03777561 338.89455391 335.02102024 344.44727225 335 350 C306.59360234 350.02332532 278.18720611 350.04097737 249.78080082 350.05181217 C236.59222659 350.05697591 223.40365831 350.06402008 210.21508789 350.07543945 C198.7244828 350.08538392 187.233882 350.09185286 175.74327272 350.09408849 C169.65499015 350.09539601 163.56671988 350.0984844 157.47844124 350.10573006 C151.75516367 350.11248653 146.03190354 350.11461773 140.30862236 350.11310768 C138.20142904 350.11338418 136.09423517 350.1153915 133.98704529 350.11920547 C131.1234675 350.12413691 128.2599567 350.12300033 125.39637756 350.12025452 C124.55106368 350.12316736 123.70574979 350.1260802 122.83482033 350.12908131 C117.11412121 350.11412121 117.11412121 350.11412121 116 349 C115.90231778 346.57150529 115.87003469 344.17148637 115.87974548 341.74253845 C115.87846385 340.58969505 115.87846385 340.58969505 115.87715632 339.41356188 C115.87549919 336.81857214 115.88102666 334.22364597 115.88647461 331.62866211 C115.88675646 329.77632143 115.8865988 327.92398063 115.8860321 326.07164001 C115.88574403 321.02639589 115.89164227 315.98117532 115.89860606 310.93593669 C115.90483805 305.66949631 115.90544328 300.40305544 115.90663147 295.13661194 C115.90974525 285.15642042 115.91795925 275.1762398 115.92798096 265.19605309 C115.93914067 253.8371181 115.94465219 242.4781826 115.94967639 231.1192435 C115.96014183 207.74615608 115.97794252 184.37307911 116 161 C109.07 161.33 102.14 161.66 95 162 C94.93941406 163.83304688 94.87882813 165.66609375 94.81640625 167.5546875 C94.7319409 169.99479756 94.64729596 172.43490141 94.5625 174.875 C94.52318359 176.07898438 94.48386719 177.28296875 94.44335938 178.5234375 C93.74636884 198.25363116 93.74636884 198.25363116 92 200 C89.19023482 200.16017166 86.40226404 200.25950534 83.58984375 200.31640625 C82.32679161 200.3475779 82.32679161 200.3475779 81.03822327 200.37937927 C78.33806821 200.44496812 75.63781283 200.50380276 72.9375 200.5625 C71.11131759 200.60567637 69.28514546 200.64929036 67.45898438 200.69335938 C62.97276008 200.80065894 58.4864345 200.90189966 54 201 C54.00222061 201.59846237 54.00444122 202.19692474 54.00672913 202.81352234 C54.11978451 234.96522728 53.9970653 267.10196569 53.5 299.25 C53.48804218 300.02372829 53.47608437 300.79745659 53.46376419 301.5946312 C53.3167424 311.06321541 53.16222641 320.53166313 53 330 C51.42225548 330.16670575 49.84423831 330.3308322 48.26611328 330.49389648 C47.38738556 330.58557602 46.50865784 330.67725555 45.603302 330.77171326 C39.74441953 331.28548584 33.87686521 331.05342605 28 331 C28 337.27 28 343.54 28 350 C7.54 350 -12.92 350 -34 350 C-34 334.49 -34 318.98 -34 303 C-22.78 302.67 -11.56 302.34 0 302 C0 284.18 0 266.36 0 248 C-16.36505593 248.07918281 -16.36505593 248.07918281 -32.72998047 248.18017578 C-34.77571403 248.18601487 -36.82144991 248.19111181 -38.8671875 248.1953125 C-39.93654541 248.20554443 -41.00590332 248.21577637 -42.10766602 248.22631836 C-43.12256104 248.22656006 -44.13745605 248.22680176 -45.18310547 248.22705078 C-46.50881058 248.23371262 -46.50881058 248.23371262 -47.86129761 248.24050903 C-50 248 -50 248 -52 246 C-52.24291992 244.01074219 -52.24291992 244.01074219 -52.23046875 241.546875 C-52.22926025 240.62729004 -52.22805176 239.70770508 -52.22680664 238.76025391 C-52.21383545 237.76687012 -52.20086426 236.77348633 -52.1875 235.75 C-52.18032959 234.73470215 -52.17315918 233.7194043 -52.16577148 232.67333984 C-52.08920415 225.31947227 -51.87281301 217.97252926 -51.5625 210.625 C-51.52342529 209.67463867 -51.48435059 208.72427734 -51.4440918 207.74511719 C-51.40195557 206.87274414 -51.35981934 206.00037109 -51.31640625 205.1015625 C-51.27974854 204.33150879 -51.24309082 203.56145508 -51.20532227 202.76806641 C-51 201 -51 201 -50 200 C-47.6243148 199.9116033 -45.27791326 199.88469695 -42.90234375 199.90234375 C-41.83905602 199.90446617 -41.83905602 199.90446617 -40.75428772 199.90663147 C-38.48198288 199.91224557 -36.20977525 199.92480037 -33.9375 199.9375 C-32.40039204 199.94251319 -30.86328255 199.94707641 -29.32617188 199.95117188 C-25.55071333 199.9613703 -21.77546596 199.98094268 -18 200 C-18 194.72 -18 189.44 -18 184 C-12.06 184 -6.12 184 0 184 C0 162.22 0 140.44 0 118 C-17.16 118 -34.32 118 -52 118 C-52 101.83 -52 85.66 -52 69 C-34.84 69 -17.68 69 0 69 C0 46.23 0 23.46 0 0 Z " fill="#8CC140" transform="translate(53,3)"/>
<path d="M0 0 C17.49 0.33 34.98 0.66 53 1 C53 24.1 53 47.2 53 71 C71.93531763 70.96065122 71.93531763 70.96065122 90.87060547 70.90991211 C104.28095072 70.88651676 117.62408646 70.98124375 131 72 C131.02526692 79.38728102 131.0428316 86.77455098 131.05493164 94.16186523 C131.05997363 96.67716895 131.06680703 99.19246972 131.07543945 101.70776367 C131.08751094 105.31429775 131.09322949 108.92079323 131.09765625 112.52734375 C131.10281754 113.65961899 131.10797882 114.79189423 131.11329651 115.95848083 C131.11340981 117.51998619 131.11340981 117.51998619 131.11352539 119.11303711 C131.115746 120.03459091 131.11796661 120.95614471 131.12025452 121.90562439 C131 124 131 124 130 125 C127.62699131 125.09494733 125.28321297 125.12559319 122.90991211 125.11352539 C122.16849472 125.11367142 121.42707733 125.11381744 120.66319275 125.1139679 C118.20121379 125.11326865 115.73930957 125.10547574 113.27734375 125.09765625 C111.57483461 125.09579211 109.87232493 125.09436819 108.16981506 125.09336853 C103.68006927 125.08954302 99.19035562 125.07971247 94.70062256 125.06866455 C90.12268509 125.05845113 85.54474244 125.05387106 80.96679688 125.04882812 C71.97785043 125.03809022 62.98892788 125.02101341 54 125 C54.00785522 126.97178223 54.00785522 126.97178223 54.01586914 128.98339844 C54.10279226 153.03496983 54.09461929 177.07816756 53.5625 201.125 C53.5330278 202.56159973 53.5330278 202.56159973 53.50296021 204.02722168 C53.44659217 206.70842744 53.38305418 209.38934481 53.31640625 212.0703125 C53.29968872 212.86577484 53.28297119 213.66123718 53.26574707 214.48080444 C53.11569401 219.88430599 53.11569401 219.88430599 52 221 C50.21928754 221.08726223 48.4351686 221.10699041 46.65234375 221.09765625 C45.68031006 221.09515869 44.70827637 221.09266113 43.70678711 221.09008789 C41.84098999 221.07643188 41.84098999 221.07643188 39.9375 221.0625 C35.998125 221.041875 32.05875 221.02125 28 221 C28 236.51 28 252.02 28 268 C23.00748539 268.99850292 18.69639137 269.03716678 13.64453125 268.9375 C9.06007996 269.01611867 4.55369343 269.48864403 0 270 C0.00523682 270.7520874 0.01047363 271.5041748 0.01586914 272.27905273 C0.03657227 275.66519342 0.04963877 279.05132084 0.0625 282.4375 C0.07087891 283.62150391 0.07925781 284.80550781 0.08789062 286.02539062 C0.09111328 287.15009766 0.09433594 288.27480469 0.09765625 289.43359375 C0.10289307 290.47572021 0.10812988 291.51784668 0.11352539 292.59155273 C0 295 0 295 -1 296 C-3.28988781 296.15888092 -5.58443441 296.25138073 -7.87890625 296.31640625 C-8.5655687 296.33718735 -9.25223114 296.35796844 -9.95970154 296.37937927 C-12.16052935 296.44494143 -14.36147975 296.50379015 -16.5625 296.5625 C-18.05144514 296.60567892 -19.54037773 296.649293 -21.02929688 296.69335938 C-24.68607392 296.8014515 -28.34293947 296.90047374 -32 297 C-32 306.57 -32 316.14 -32 326 C-41.1458432 326.02272303 -50.29166721 326.04101374 -59.43753242 326.05181217 C-63.68574205 326.05699864 -67.93393111 326.06401791 -72.18212891 326.07543945 C-76.29295932 326.08642068 -80.40377014 326.09230861 -84.51461411 326.09487724 C-86.07163679 326.09670436 -87.62865858 326.10027118 -89.18567276 326.10573006 C-91.39089405 326.11314382 -93.59603752 326.11398261 -95.80126953 326.11352539 C-97.04925323 326.115746 -98.29723694 326.11796661 -99.58303833 326.12025452 C-105.73109393 325.9528699 -111.86529609 325.43819314 -118 325 C-118 309.16 -118 293.32 -118 277 C-100.18 277 -82.36 277 -64 277 C-64 269.08 -64 261.16 -64 253 C-58.8357237 251.52449248 -56.0835084 250.75044856 -51.06640625 250.8046875 C-50.10935791 250.80968262 -49.15230957 250.81467773 -48.16625977 250.81982422 C-46.97701904 250.83803223 -45.78777832 250.85624023 -44.5625 250.875 C-40.746875 250.91625 -36.93125 250.9575 -33 251 C-32.67 240.77 -32.34 230.54 -32 220 C-21.44 220 -10.88 220 0 220 C0 188.98 0 157.96 0 126 C-31.35 126 -62.7 126 -95 126 C-94.9603836 154.25769989 -94.9603836 154.25769989 -94.90991211 182.51538086 C-94.90539551 187.96984863 -94.90539551 187.96984863 -94.90455627 190.52003479 C-94.90301661 192.3083267 -94.89949123 194.09661755 -94.89442444 195.88490295 C-94.88714785 198.58726822 -94.88609255 201.28956983 -94.88647461 203.99194336 C-94.8828765 204.79402442 -94.87927839 205.59610548 -94.87557125 206.42249203 C-94.88597366 211.88597366 -94.88597366 211.88597366 -96 213 C-97.62127423 213.09861598 -99.24682368 213.12798767 -100.87109375 213.12939453 C-101.90886963 213.13254669 -102.94664551 213.13569885 -104.01586914 213.13894653 C-105.70957642 213.13591019 -105.70957642 213.13591019 -107.4375 213.1328125 C-109.16311157 213.13424759 -109.16311157 213.13424759 -110.92358398 213.13571167 C-113.36149144 213.13639369 -115.7994007 213.1345379 -118.23730469 213.13037109 C-121.98376518 213.12502317 -125.73010577 213.13031539 -129.4765625 213.13671875 C-131.83854193 213.13605797 -134.20052129 213.13477682 -136.5625 213.1328125 C-137.69163818 213.13483673 -138.82077637 213.13686096 -139.98413086 213.13894653 C-141.54079468 213.13421829 -141.54079468 213.13421829 -143.12890625 213.12939453 C-144.04744385 213.12859894 -144.96598145 213.12780334 -145.91235352 213.12698364 C-148 213 -148 213 -149 212 C-149.09511266 209.35261911 -149.12555635 206.73140999 -149.11352539 204.08374023 C-149.11367142 203.25454071 -149.11381744 202.42534119 -149.1139679 201.5710144 C-149.11326851 198.81684802 -149.10547493 196.06274839 -149.09765625 193.30859375 C-149.09579216 191.40430234 -149.09436822 189.50001045 -149.09336853 187.59571838 C-149.08954263 182.57332037 -149.07971173 177.55095108 -149.06866455 172.52856445 C-149.05845198 167.4077188 -149.05387124 162.28686852 -149.04882812 157.16601562 C-149.03808953 147.11066443 -149.02101224 137.0553346 -149 127 C-149.66044312 127.00229111 -150.32088623 127.00458221 -151.00134277 127.00694275 C-164.12552534 127.04625501 -177.23869875 127.03349701 -190.35742188 126.62768555 C-192.587101 126.55985005 -194.81692387 126.5015008 -197.046875 126.44335938 C-198.47918278 126.4015907 -199.91147537 126.35929675 -201.34375 126.31640625 C-202.60380859 126.27974854 -203.86386719 126.24309082 -205.16210938 126.20532227 C-208 126 -208 126 -209 125 C-209.09854422 123.4093669 -209.12798694 121.81438523 -209.12939453 120.22070312 C-209.13254669 119.202948 -209.13569885 118.18519287 -209.13894653 117.13659668 C-209.1369223 116.02933228 -209.13489807 114.92206787 -209.1328125 113.78125 C-209.13376923 112.65303833 -209.13472595 111.52482666 -209.13571167 110.36242676 C-209.13639368 107.97159774 -209.13453797 105.58076689 -209.13037109 103.18994141 C-209.12502316 99.51590849 -209.13031543 95.84199783 -209.13671875 92.16796875 C-209.13605797 89.85156223 -209.13477682 87.53515578 -209.1328125 85.21875 C-209.13584885 83.55785339 -209.13584885 83.55785339 -209.13894653 81.86340332 C-209.13579437 80.84564819 -209.13264221 79.82789307 -209.12939453 78.77929688 C-209.12859894 77.87852417 -209.12780334 76.97775146 -209.12698364 76.04968262 C-209 74 -209 74 -208 73 C-206.1903226 72.87669912 -204.37592163 72.82209817 -202.56225586 72.79467773 C-201.40112778 72.77473251 -200.23999969 72.75478729 -199.04368591 72.73423767 C-197.14840904 72.70916893 -197.14840904 72.70916893 -195.21484375 72.68359375 C-193.92888809 72.66281265 -192.64293243 72.64203156 -191.31800842 72.62062073 C-187.89364096 72.56533824 -184.4692125 72.51595639 -181.04473877 72.46777344 C-177.55255686 72.41760335 -174.0604639 72.3618939 -170.56835938 72.30664062 C-163.71231667 72.1989836 -156.85619367 72.09755551 -150 72 C-149.98969254 71.16283951 -149.97938507 70.32567902 -149.96876526 69.46315002 C-149.87096218 61.59025264 -149.76847275 53.71743342 -149.66066074 45.84466648 C-149.60539471 41.79678183 -149.55196898 37.74889 -149.50268555 33.70092773 C-149.45509607 29.79757638 -149.4027555 25.89431551 -149.34705925 21.9910717 C-149.32661106 20.49868955 -149.30790213 19.00628257 -149.29092598 17.51385689 C-149.2669362 15.43045151 -149.23687481 13.3472186 -149.20532227 11.26391602 C-149.18977798 10.07588882 -149.1742337 8.88786163 -149.15821838 7.66383362 C-149 5 -149 5 -148 4 C-146.37325222 3.90659566 -144.74245949 3.88254829 -143.11303711 3.88647461 C-142.07203354 3.88655014 -141.03102997 3.88662567 -139.95848083 3.88670349 C-138.8262056 3.89186478 -137.69393036 3.89702606 -136.52734375 3.90234375 C-134.79817467 3.90446617 -134.79817467 3.90446617 -133.03407288 3.90663147 C-129.33518936 3.91224995 -125.63636536 3.92480558 -121.9375 3.9375 C-119.43684983 3.94251262 -116.93619871 3.94707594 -114.43554688 3.95117188 C-108.29034412 3.96222538 -102.14517631 3.97898148 -96 4 C-94.89864455 7.30406635 -94.87963937 9.73643693 -94.88647461 13.21557617 C-94.88659546 14.51458862 -94.88671631 15.81360107 -94.88684082 17.15197754 C-94.89187634 18.53230843 -94.89704292 19.91263885 -94.90234375 21.29296875 C-94.90335083 22.54807251 -94.90435791 23.80317627 -94.90539551 25.09631348 C-94.91063509 29.79338492 -94.92459631 34.49044336 -94.9375 39.1875 C-94.958125 49.685625 -94.97875 60.18375 -95 71 C-63.65 71 -32.3 71 0 71 C0 47.57 0 24.14 0 0 Z " fill="#8D2881" transform="translate(1024,28)"/>
<path d="M0 0 C1.29461655 0.00222061 2.58923309 0.00444122 3.92308044 0.00672913 C4.99131546 0.00651009 4.99131546 0.00651009 6.08113098 0.00628662 C8.4457143 0.00698581 10.81021979 0.01477846 13.17478943 0.02259827 C14.81003781 0.02446243 16.44528675 0.02588634 18.08053589 0.02688599 C22.39273103 0.03071134 26.7048927 0.04054177 31.01707458 0.05158997 C35.41404263 0.06180371 39.81101607 0.06638353 44.20799255 0.07142639 C52.84147149 0.08216402 61.47492317 0.09924065 70.10838318 0.12025452 C71.6536556 3.21079935 71.24683395 6.46755687 71.23777771 9.85877991 C71.24040619 11.05649773 71.24040619 11.05649773 71.24308777 12.27841187 C71.24749896 14.92493343 71.24457114 17.57138849 71.24119568 20.21791077 C71.24186886 22.05111707 71.24283901 23.8843233 71.24409485 25.7175293 C71.24557077 29.56182199 71.24342039 33.40609147 71.23875427 37.25038147 C71.23305304 42.18938319 71.23633915 47.12833063 71.24232674 52.06733036 C71.24593177 55.85300103 71.2447941 59.63865871 71.24219894 63.42432976 C71.24152972 65.24608301 71.24235794 67.06783742 71.2446785 68.88958931 C71.2472045 71.43013275 71.24336537 73.97058691 71.23777771 76.51112366 C71.23980194 77.27114685 71.24182617 78.03117004 71.24391174 78.81422424 C71.22264662 84.00599108 71.22264662 84.00599108 70.10838318 85.12025452 C67.73297267 85.208641 65.38604738 85.23562975 63.01072693 85.21791077 C61.06541077 85.21416443 61.06541077 85.21416443 59.08079529 85.21034241 C57.41927429 85.2012384 55.7577533 85.1921344 54.04588318 85.18275452 C48.78650818 85.16212952 43.52713318 85.14150452 38.10838318 85.12025452 C38.10838318 103.93025452 38.10838318 122.74025452 38.10838318 142.12025452 C30.63955505 142.10865295 23.17072693 142.09705139 15.47557068 142.08509827 C10.69952813 142.07997933 5.92348903 142.07516469 1.14744568 142.07142639 C-6.40724911 142.06548482 -13.96193159 142.05851204 -21.51661682 142.04481506 C-27.61802682 142.03382415 -33.7194236 142.02794394 -39.82084274 142.02537727 C-42.13042788 142.02355185 -44.44001243 142.01998855 -46.74959183 142.01452446 C-61.49470193 141.98107735 -76.16793688 142.31029542 -90.89161682 143.12025452 C-91.65261054 154.89122383 -92.03095583 166.59214252 -91.98927307 178.38612366 C-91.98734681 180.02260288 -91.98588637 181.65908271 -91.98484802 183.29556274 C-91.98172443 186.7755046 -91.97551501 190.25542122 -91.96678162 193.73535347 C-91.95311401 199.23567634 -91.94733641 204.73599129 -91.94264221 210.23632812 C-91.93161963 221.88514801 -91.91201968 233.53394787 -91.89161682 245.18275452 C-91.86956111 257.82142089 -91.84904768 270.46007978 -91.83819866 283.0987615 C-91.83321056 288.57118612 -91.82334575 294.04357394 -91.80976868 299.5159837 C-91.80234143 302.90191786 -91.79900038 306.28784687 -91.79680252 309.67378807 C-91.79492198 311.24885487 -91.7913043 312.82392064 -91.7858696 314.39897919 C-91.77871353 316.53905106 -91.77761311 318.67904062 -91.77809143 320.81912231 C-91.77587082 322.01896287 -91.77365021 323.21880342 -91.7713623 324.45500278 C-91.89161682 327.12025452 -91.89161682 327.12025452 -92.89161682 328.12025452 C-94.96423759 328.20792564 -97.03981976 328.22721325 -99.11427307 328.21791077 C-100.37433167 328.21468811 -101.63439026 328.21146545 -102.93263245 328.20814514 C-104.27312791 328.19978855 -105.6136227 328.19132359 -106.95411682 328.18275452 C-108.29851624 328.17774112 -109.64291742 328.17317793 -110.98731995 328.16908264 C-114.28877115 328.15724948 -117.59019942 328.13931337 -120.89161682 328.12025452 C-121.22161682 336.37025452 -121.55161682 344.62025452 -121.89161682 353.12025452 C-142.02161682 353.12025452 -162.15161682 353.12025452 -182.89161682 353.12025452 C-182.89161682 336.62025452 -182.89161682 320.12025452 -182.89161682 303.12025452 C-171.34161682 303.12025452 -159.79161682 303.12025452 -147.89161682 303.12025452 C-147.56161682 250.32025452 -147.23161682 197.52025452 -146.89161682 143.12025452 C-188.47161682 142.79025452 -230.05161682 142.46025452 -272.89161682 142.12025452 C-272.89161682 88.12025452 -272.89161682 88.12025452 -271.89161682 87.12025452 C-270.27205342 87.02422429 -268.648286 86.99837597 -267.02587891 87 C-265.97273499 86.99862534 -264.91959106 86.99725067 -263.83453369 86.99583435 C-262.08666313 87.00122726 -262.08666313 87.00122726 -260.30348206 87.00672913 C-259.08413971 87.0065831 -257.86479736 87.00643707 -256.60850525 87.00628662 C-253.25534171 87.00686559 -249.90223908 87.01189483 -246.54908633 87.01886058 C-243.0483612 87.02509469 -239.54763534 87.02569796 -236.04690552 87.02688599 C-229.41352027 87.02999913 -222.78015141 87.0382123 -216.1467734 87.04823548 C-208.59671475 87.05939713 -201.04665533 87.06490719 -193.4965905 87.06993091 C-177.96158976 87.08039493 -162.4266054 87.09799405 -146.89161682 87.12025452 C-146.89605804 86.29784271 -146.90049927 85.47543091 -146.90507507 84.62809753 C-146.94510354 76.88803536 -146.97557657 69.14802317 -146.99524117 61.4078846 C-147.00569068 57.42833679 -147.01987104 53.44887431 -147.04249573 49.46937561 C-147.06418268 45.63091566 -147.07617664 41.79253793 -147.08137131 37.95402145 C-147.08507455 36.48754964 -147.09230582 35.02108247 -147.10307693 33.55464554 C-147.11753701 31.50496346 -147.11959711 29.4556237 -147.1186676 27.40589905 C-147.12310883 26.23785736 -147.12755005 25.06981567 -147.13212585 23.86637878 C-146.89161682 21.12025452 -146.89161682 21.12025452 -144.89161682 19.12025452 C-142.67698669 18.87974548 -142.67698669 18.87974548 -139.89112854 18.89320374 C-138.8502005 18.8933548 -137.80927246 18.89350586 -136.73680115 18.8936615 C-135.04613022 18.90914536 -135.04613022 18.90914536 -133.32130432 18.92494202 C-132.16993988 18.92777191 -131.01857544 18.93060181 -129.83232117 18.93351746 C-126.1436487 18.94474044 -122.45521629 18.96984896 -118.76661682 18.99525452 C-116.27052657 19.00528157 -113.77443252 19.0144079 -111.27833557 19.02259827 C-105.14934698 19.04468668 -99.02049905 19.07818505 -92.89161682 19.12025452 C-91.02993817 23.08102583 -90.64736812 26.20320898 -90.66456604 30.56288147 C-90.66479263 32.48430717 -90.66479263 32.48430717 -90.6650238 34.44454956 C-90.67523552 35.83254656 -90.68566749 37.22054196 -90.69630432 38.60853577 C-90.70003732 40.03628338 -90.70288294 41.46403357 -90.70487976 42.89178467 C-90.71249364 46.63844451 -90.73212263 50.38494778 -90.75428772 54.13154602 C-90.77479469 57.95914085 -90.78389183 61.78676113 -90.79396057 65.61439514 C-90.81537083 73.11641942 -90.84947941 80.61831498 -90.89161682 88.12025452 C-89.67804504 88.08996155 -88.46447327 88.05966858 -87.21412659 88.02845764 C-82.62742563 87.91452868 -78.0406603 87.80338868 -73.45387268 87.69300842 C-71.48445361 87.64524356 -69.51505171 87.59676409 -67.54566956 87.54750061 C-55.32479536 87.24236796 -43.11641788 87.04680165 -30.89161682 87.12025452 C-31.22161682 86.13025452 -31.55161682 85.14025452 -31.89161682 84.12025452 C-32.13941366 81.05185665 -32.32265732 78.00690529 -32.45411682 74.93275452 C-32.49585022 73.96619934 -32.53758362 72.99964417 -32.58058167 72.00379944 C-32.9767516 61.31610467 -33.00215391 50.6265842 -33.01661682 39.93275452 C-33.01920502 39.03360321 -33.02179321 38.1344519 -33.02445984 37.20805359 C-33.03032607 34.62275746 -33.02872652 32.03758291 -33.02442932 29.45228577 C-33.02640823 28.67087219 -33.02838715 27.88945862 -33.03042603 27.08436584 C-33.01520553 23.52262089 -32.76227635 20.60289262 -31.89161682 17.12025452 C-22.65161682 16.79025452 -13.41161682 16.46025452 -3.89161682 16.12025452 C-3.93118472 11.22871981 -3.93118472 11.22871981 -3.98170471 6.33729553 C-3.98886596 4.59803735 -3.94186384 2.85880148 -3.89161682 1.12025452 C-2.89161682 0.12025452 -2.89161682 0.12025452 0 0 Z " fill="#02A098" transform="translate(1486.891616821289,6.8797454833984375)"/>
<path d="M0 0 C1.58669495 -0.00472824 1.58669495 -0.00472824 3.20544434 -0.009552 C4.93196228 -0.00651566 4.93196228 -0.00651566 6.69335938 -0.00341797 C8.45226501 -0.00485306 8.45226501 -0.00485306 10.2467041 -0.00631714 C12.73169 -0.00699917 15.21667766 -0.00514331 17.70166016 -0.00097656 C21.52054825 0.00437134 25.33931872 -0.00092083 29.15820312 -0.00732422 C31.56575547 -0.00666344 33.97330774 -0.00538229 36.38085938 -0.00341797 C38.10737732 -0.00645432 38.10737732 -0.00645432 39.86877441 -0.009552 C40.92657104 -0.00639984 41.98436768 -0.00324768 43.07421875 0 C44.47867249 0.00119339 44.47867249 0.00119339 45.91149902 0.00241089 C48.03710938 0.12939453 48.03710938 0.12939453 49.03710938 1.12939453 C49.13730513 4.05711523 49.17149345 6.96132214 49.16409302 9.88954163 C49.16565301 10.81988501 49.167213 11.7502284 49.16882026 12.70876402 C49.17283476 15.85167546 49.16963881 18.9945393 49.16650391 22.13745117 C49.16785781 24.38074777 49.16963768 26.62404414 49.17181396 28.86734009 C49.1763914 34.98126492 49.17459699 41.09517296 49.17143488 47.2090981 C49.16891069 53.59955851 49.17124919 59.99001744 49.17282104 66.38047791 C49.1747604 77.81097858 49.17164188 89.24146994 49.16656171 100.67196905 C49.16210115 111.0284682 49.16286326 121.38495613 49.16748047 131.74145508 C49.17283789 143.76390906 49.17482028 155.78635456 49.17186821 167.80881017 C49.17030938 174.17396052 49.17010069 180.53910315 49.17340469 186.90425301 C49.17629673 192.89514177 49.17428315 198.88600941 49.16851044 204.8768959 C49.16718958 207.07467679 49.16756551 209.27245946 49.1697731 211.47023964 C49.17251133 214.47363764 49.16907065 217.47696822 49.16409302 220.48036194 C49.16632374 221.34740425 49.16855446 222.21444656 49.17085278 223.10776287 C49.15451237 228.20216113 48.76764373 233.08618782 48.03710938 238.12939453 C48.81948975 238.12415771 49.60187012 238.1189209 50.40795898 238.11352539 C53.93016771 238.09282347 57.45236368 238.07975615 60.97460938 238.06689453 C62.20630859 238.05851563 63.43800781 238.05013672 64.70703125 238.04150391 C65.87685547 238.03828125 67.04667969 238.03505859 68.25195312 238.03173828 C69.33597412 238.02650146 70.41999512 238.02126465 71.53686523 238.01586914 C74.03710938 238.12939453 74.03710938 238.12939453 75.03710938 239.12939453 C75.1243716 240.91010699 75.14409979 242.69422593 75.13476562 244.47705078 C75.12993164 246.09643555 75.12993164 246.09643555 75.125 247.74853516 C75.11243164 249.45299805 75.11243164 249.45299805 75.09960938 251.19189453 C75.09509766 252.33207031 75.09058594 253.47224609 75.0859375 254.64697266 C75.07410685 257.47449804 75.05762347 260.30192093 75.03710938 263.12939453 C75.69710937 262.79939453 76.35710937 262.46939453 77.03710938 262.12939453 C78.37566392 262.03593047 79.71873343 262.00310107 81.06054688 262.00241089 C81.90182129 261.99959106 82.7430957 261.99677124 83.60986328 261.99386597 C84.53460449 261.9958902 85.4593457 261.99791443 86.41210938 262 C87.3845459 261.99824768 88.35698242 261.99649536 89.35888672 261.99468994 C92.5849789 261.9902756 95.8110166 261.99320797 99.03710938 261.99658203 C101.27148448 261.99590887 103.50585952 261.99493875 105.74023438 261.99368286 C110.42774145 261.99220645 115.1152295 261.99435863 119.80273438 261.99902344 C125.82228103 262.00472068 131.84178311 262.00144138 137.86132812 261.99545097 C142.47656594 261.99184383 147.09179312 261.99298466 151.70703125 261.99557877 C153.92708339 261.99624761 156.14713648 261.99542109 158.3671875 261.99309921 C161.46552095 261.9905702 164.56378139 261.99441685 167.66210938 262 C168.58685059 261.99797577 169.5115918 261.99595154 170.46435547 261.99386597 C171.72626709 261.9980957 171.72626709 261.9980957 173.01367188 262.00241089 C173.74666504 262.00278791 174.4796582 262.00316494 175.23486328 262.00355339 C177.03710938 262.12939453 177.03710938 262.12939453 179.03710938 263.12939453 C178.96492187 262.40236328 178.89273438 261.67533203 178.81835938 260.92626953 C177.40936632 245.66217815 177.40936632 245.66217815 178.03710938 239.12939453 C181.07039528 236.09610862 184.64555 236.69994261 188.72460938 236.56689453 C190.31196666 236.50609111 191.89921355 236.44232795 193.48632812 236.37548828 C194.19104248 236.35156006 194.89575684 236.32763184 195.62182617 236.30297852 C198.78682421 236.07551328 201.90049324 235.60211361 205.03710938 235.12939453 C205.03187256 234.12787354 205.02663574 233.12635254 205.02124023 232.09448242 C205.00280104 228.29045548 204.99153904 224.48643224 204.98217773 220.68237305 C204.97722463 219.05248343 204.97046033 217.42259805 204.96166992 215.79272461 C204.91559942 207.01493883 204.98930364 198.26671696 205.47851562 189.50048828 C205.51750473 188.77177017 205.55649384 188.04305206 205.59666443 187.29225159 C205.91201794 182.25448597 205.91201794 182.25448597 207.03710938 181.12939453 C208.65838361 181.03077855 210.28393305 181.00140686 211.90820312 181 C212.945979 180.99684784 213.98375488 180.99369568 215.05297852 180.990448 C216.74668579 180.99348434 216.74668579 180.99348434 218.47460938 180.99658203 C219.62501709 180.99562531 220.7754248 180.99466858 221.96069336 180.99368286 C224.39860081 180.99300084 226.83651007 180.99485663 229.27441406 180.99902344 C233.02087455 181.00437136 236.76721514 180.99907914 240.51367188 180.99267578 C242.87565131 180.99333656 245.23763067 180.99461771 247.59960938 180.99658203 C248.72874756 180.9945578 249.85788574 180.99253357 251.02124023 180.990448 C252.57790405 180.99517624 252.57790405 180.99517624 254.16601562 181 C255.08455322 181.00079559 256.00309082 181.00159119 256.94946289 181.00241089 C259.03710938 181.12939453 259.03710938 181.12939453 260.03710938 182.12939453 C260.13855064 185.26048434 260.17676788 188.36901791 260.16992188 191.50048828 C260.17135696 192.92772972 260.17135696 192.92772972 260.17282104 194.38380432 C260.17350355 196.40731878 260.1716444 198.43083541 260.16748047 200.4543457 C260.16218596 203.52251256 260.1673954 206.59052946 260.17382812 209.65869141 C260.17316632 211.62679068 260.17188305 213.59488987 260.16992188 215.56298828 C260.17194611 216.47068466 260.17397034 217.37838104 260.17605591 218.31358337 C260.11589399 235.05060992 260.11589399 235.05060992 258.03710938 237.12939453 C256.55071945 237.2859448 255.0576181 237.38006396 253.56445312 237.44580078 C252.21577148 237.50864258 252.21577148 237.50864258 250.83984375 237.57275391 C249.89431641 237.61207031 248.94878906 237.65138672 247.97460938 237.69189453 C247.02521484 237.73507812 246.07582031 237.77826172 245.09765625 237.82275391 C242.74429584 237.92918729 240.39082583 238.03120462 238.03710938 238.12939453 C238.03932999 238.7661058 238.0415506 239.40281708 238.0438385 240.05882263 C238.06588978 246.66054729 238.08101531 253.26226157 238.09204102 259.86401367 C238.09708294 262.33081487 238.10391628 264.79761305 238.11254883 267.2644043 C238.12462062 270.80143982 238.13033893 274.33843599 238.13476562 277.87548828 C238.13992691 278.98588974 238.1450882 280.0962912 238.15040588 281.24034119 C238.15048141 282.26132401 238.15055695 283.28230682 238.15063477 284.33422852 C238.15285538 285.23801743 238.15507599 286.14180634 238.15736389 287.07298279 C238.03710938 289.12939453 238.03710938 289.12939453 237.03710938 290.12939453 C234.63334023 290.17777228 232.25216774 290.17146698 229.84960938 290.12939453 C222.19429196 290.05304957 214.66708827 290.46177138 207.03710938 291.12939453 C207.04758301 291.81042236 207.05805664 292.4914502 207.06884766 293.19311523 C207.11039815 296.27600419 207.13643249 299.35883424 207.16210938 302.44189453 C207.18724609 304.04967773 207.18724609 304.04967773 207.21289062 305.68994141 C207.21933594 306.71796875 207.22578125 307.74599609 207.23242188 308.80517578 C207.24289551 309.75303955 207.25336914 310.70090332 207.26416016 311.67749023 C207.03710938 314.12939453 207.03710938 314.12939453 205.03710938 317.12939453 C201.93154827 317.53444281 199.0230919 317.73334725 195.90356445 317.80859375 C194.93423635 317.84168074 193.96490824 317.87476772 192.96620655 317.90885735 C179.77455897 318.30696371 166.57342406 318.27565533 153.37701774 318.26372004 C149.62730579 318.26114498 145.87759599 318.26354699 142.12788391 318.2651062 C135.86088613 318.26690843 129.59390026 318.26456838 123.3269043 318.25976562 C116.08057268 318.25427655 108.834269 318.25612671 101.58793801 318.26159203 C95.33360037 318.26611963 89.07927115 318.26677696 82.8249324 318.26415336 C79.10229997 318.26259502 75.37968075 318.26238573 71.65704918 318.26568985 C67.53331184 318.26909734 63.40962361 318.26438508 59.28588867 318.25878906 C58.0523465 318.26081329 56.81880432 318.26283752 55.54788208 318.2649231 C54.43397598 318.26210327 53.32006989 318.25928345 52.17240906 318.25637817 C51.19899409 318.25600115 50.22557913 318.25562412 49.22266674 318.25523567 C47.03710938 318.12939453 47.03710938 318.12939453 46.03710938 317.12939453 C44.42799728 307.61378101 44.94192384 297.74313357 45.03710938 288.12939453 C43.63634155 288.13724976 43.63634155 288.13724976 42.20727539 288.14526367 C38.75398141 288.16227073 35.3007317 288.17482755 31.84741211 288.18432617 C30.35066019 288.18936574 28.85391322 288.19619741 27.35717773 288.20483398 C25.2101113 288.21691612 23.06310975 288.22262645 20.91601562 288.22705078 C18.97577515 288.23490601 18.97577515 288.23490601 16.99633789 288.24291992 C14.03710938 288.12939453 14.03710938 288.12939453 13.03710938 287.12939453 C12.94863195 284.60845377 12.92183636 282.1150856 12.93945312 279.59423828 C12.94086807 278.8409877 12.94228302 278.08773712 12.94374084 277.31166077 C12.94935562 274.89669893 12.96191055 272.48182852 12.97460938 270.06689453 C12.97962248 268.43343232 12.98418571 266.79996867 12.98828125 265.16650391 C12.99932984 261.15409868 13.01660431 257.14176213 13.03710938 253.12939453 C11.7609375 253.09201172 10.48476563 253.05462891 9.16992188 253.01611328 C7.500621 252.95046662 5.83135149 252.88401883 4.16210938 252.81689453 C3.32035156 252.79433594 2.47859375 252.77177734 1.61132812 252.74853516 C0.80566406 252.71308594 0 252.67763672 -0.83007812 252.64111328 C-1.57370605 252.6149292 -2.31733398 252.58874512 -3.08349609 252.56176758 C-4.96289062 252.12939453 -4.96289062 252.12939453 -6.96289062 249.12939453 C-7.19285488 246.46273136 -7.19285488 246.46273136 -7.16465759 243.16017151 C-7.15917939 241.89618247 -7.15370119 240.63219343 -7.14805698 239.3299017 C-7.13190249 237.91093294 -7.11566881 236.49196509 -7.09936523 235.07299805 C-7.0895419 233.56083311 -7.08075141 232.04866117 -7.07289791 230.53648472 C-7.05429925 227.20148232 -7.03019995 223.86657583 -7.00269699 220.53163528 C-6.95874384 214.95503081 -6.93883508 209.37847412 -6.92312622 203.80172729 C-6.88567934 190.87834995 -6.83365181 177.95505462 -6.77929688 165.03173828 C-6.7744348 163.87330894 -6.76957273 162.71487959 -6.76456332 161.52134633 C-6.718515 150.57500471 -6.67179412 139.62866612 -6.62355137 128.68233395 C-6.56230203 114.77305386 -6.50443499 100.86376824 -6.45089871 86.95445627 C-6.4127225 77.10753613 -6.37078407 67.26063637 -6.32601207 57.41374403 C-6.29946257 51.55178024 -6.27460296 45.68982048 -6.2538166 39.82783318 C-6.23431381 34.34867539 -6.21019021 28.86955801 -6.18239975 23.39043617 C-6.17301026 21.3767507 -6.16534186 19.36305641 -6.15947151 17.3493576 C-6.15124645 14.6145692 -6.13698232 11.87987941 -6.12110901 9.14512634 C-6.1201309 8.33856832 -6.1191528 7.5320103 -6.11814505 6.70101112 C-6.07219292 0.60306949 -6.06279726 0.00515167 0 0 Z " fill="#E10C80" transform="translate(494.962890625,33.87060546875)"/>
<path d="M0 0 C1.58669495 -0.00472824 1.58669495 -0.00472824 3.20544434 -0.009552 C4.93196228 -0.00651566 4.93196228 -0.00651566 6.69335938 -0.00341797 C8.45226501 -0.00485306 8.45226501 -0.00485306 10.2467041 -0.00631714 C12.73169 -0.00699917 15.21667766 -0.00514331 17.70166016 -0.00097656 C21.52054825 0.00437134 25.33931872 -0.00092083 29.15820312 -0.00732422 C31.56575547 -0.00666344 33.97330774 -0.00538229 36.38085938 -0.00341797 C38.10737732 -0.00645432 38.10737732 -0.00645432 39.86877441 -0.009552 C40.92657104 -0.00639984 41.98436768 -0.00324768 43.07421875 0 C44.47867249 0.00119339 44.47867249 0.00119339 45.91149902 0.00241089 C48.03710938 0.12939453 48.03710938 0.12939453 49.03710938 1.12939453 C50.20210128 9.49705978 50.16377881 17.94991575 50.09960938 26.37939453 C50.07898437 30.25689453 50.05835938 34.13439453 50.03710938 38.12939453 C60.92710938 38.12939453 71.81710937 38.12939453 83.03710938 38.12939453 C83.03710938 53.63939453 83.03710938 69.14939453 83.03710938 85.12939453 C91.87783801 85.08980052 91.87783801 85.08980052 100.71850586 85.03930664 C102.35928101 85.0355603 102.35928101 85.0355603 104.03320312 85.03173828 C105.15911865 85.02650146 106.28503418 85.02126465 107.44506836 85.01586914 C110.03710938 85.12939453 110.03710938 85.12939453 111.03710938 86.12939453 C111.13814192 88.92933051 111.17681025 91.70408097 111.16992188 94.50439453 C111.1708786 95.34405762 111.17183533 96.1837207 111.17282104 97.04882812 C111.17350285 98.82763748 111.17164854 100.6064493 111.16748047 102.38525391 C111.1621322 105.11773229 111.16742543 107.85004629 111.17382812 110.58251953 C111.17316734 112.30647823 111.17188618 114.03043683 111.16992188 115.75439453 C111.17194611 116.5772998 111.17397034 117.40020508 111.17605591 118.24804688 C111.15205992 124.01444399 111.15205992 124.01444399 110.03710938 125.12939453 C108.01216706 125.22348932 105.98391068 125.24682575 103.95678711 125.24291992 C102.00487709 125.24280663 102.00487709 125.24280663 100.01353455 125.24269104 C98.58259036 125.23758362 97.15164655 125.23236761 95.72070312 125.22705078 C94.26481678 125.22518656 92.8089298 125.22376268 91.3530426 125.22276306 C87.51431558 125.21893819 83.67562618 125.20910817 79.83691406 125.19805908 C75.23475166 125.18604951 70.63257671 125.18144258 66.03040314 125.17560577 C59.03261236 125.16589639 52.03490417 125.14673966 45.03710938 125.12939453 C45.03710938 111.59939453 45.03710938 98.06939453 45.03710938 84.12939453 C36.52548112 84.16898729 36.52548112 84.16898729 28.01391602 84.21948242 C26.43404907 84.22322876 26.43404907 84.22322876 24.82226562 84.22705078 C23.19623413 84.23490601 23.19623413 84.23490601 21.53735352 84.24291992 C19.03710938 84.12939453 19.03710938 84.12939453 18.03710938 83.12939453 C17.94441939 81.77844471 17.91963611 80.42272362 17.92358398 79.06860352 C17.92365952 78.20778671 17.92373505 77.34696991 17.92381287 76.46006775 C17.92897415 75.52465652 17.93413544 74.5892453 17.93945312 73.62548828 C17.94086807 72.6724733 17.94228302 71.71945831 17.94374084 70.73756409 C17.94935786 67.68064288 17.96191322 64.62379376 17.97460938 61.56689453 C17.97962218 59.49983829 17.98418547 57.43278091 17.98828125 55.36572266 C17.99848379 50.2868962 18.01805582 45.20822647 18.03710938 40.12939453 C10.11710937 39.79939453 2.19710938 39.46939453 -5.96289062 39.12939453 C-5.98579847 33.73586864 -6.00572588 28.34251032 -6.01782227 22.94897461 C-6.02286294 21.11270578 -6.02969539 19.27644099 -6.03833008 17.44018555 C-6.05040735 14.80663052 -6.05612144 12.17312837 -6.06054688 9.53955078 C-6.06570816 8.71350845 -6.07086945 7.88746613 -6.07618713 7.03639221 C-6.07638267 5.06703086 -6.02493214 3.0977784 -5.96289062 1.12939453 C-4.29572378 -0.53777231 -2.28982922 0.00194571 0 0 Z " fill="#04A199" transform="translate(1442.962890625,186.87060546875)"/>
<path d="M0 0 C2.54473564 0.00546027 5.08930221 -0.00003258 7.6340332 -0.00634766 C9.25317422 -0.00568847 10.87231513 -0.00441065 12.49145508 -0.00244141 C13.25170486 -0.00446564 14.01195465 -0.00648987 14.79524231 -0.00857544 C20.07565916 0.01535643 20.07565916 0.01535643 21.19067383 1.13037109 C21.29368797 2.47030726 21.32915836 3.81555074 21.3359375 5.15942383 C21.34231735 6.01378525 21.3486972 6.86814667 21.35527039 7.74839783 C21.35638321 8.67753494 21.35749603 9.60667206 21.35864258 10.56396484 C21.36363518 11.9863723 21.36363518 11.9863723 21.36872864 13.43751526 C21.37380202 15.44751499 21.37613684 17.45752317 21.37597656 19.4675293 C21.37816205 22.55124729 21.39631066 25.63460716 21.4152832 28.71826172 C21.41821717 30.6668282 21.42020194 32.61539638 21.42114258 34.56396484 C21.42832809 35.49107773 21.43551361 36.41819061 21.44291687 37.37339783 C21.43984024 38.23091141 21.43676361 39.08842499 21.43359375 39.97192383 C21.43501877 40.72835678 21.43644379 41.48478973 21.43791199 42.2641449 C21.19067383 44.13037109 21.19067383 44.13037109 19.19067383 46.13037109 C16.9440918 46.35742188 16.9440918 46.35742188 14.18286133 46.32568359 C13.29453613 46.32068848 12.40621094 46.31569336 11.4909668 46.31054688 C10.36062012 46.29233887 9.23027344 46.27413086 8.06567383 46.25537109 C4.47692383 46.21412109 0.88817383 46.17287109 -2.80932617 46.13037109 C-2.80932617 59.99037109 -2.80932617 73.85037109 -2.80932617 88.13037109 C-10.72932617 88.46037109 -18.64932617 88.79037109 -26.80932617 89.13037109 C-26.90020508 93.3359375 -26.90020508 93.3359375 -26.99291992 97.62646484 C-27.05465992 100.33035109 -27.11806804 103.0341934 -27.18164062 105.73803711 C-27.22505551 107.62276328 -27.26672561 109.50753045 -27.30664062 111.39233398 C-27.3641851 114.09550358 -27.42792421 116.79846545 -27.49291992 119.50146484 C-27.51798866 120.773339 -27.51798866 120.773339 -27.54356384 122.07090759 C-27.69545447 128.01649939 -27.69545447 128.01649939 -28.80932617 129.13037109 C-30.70631466 129.22952904 -32.60701404 129.25836423 -34.5065918 129.25976562 C-35.72455444 129.26291779 -36.94251709 129.26606995 -38.1973877 129.26931763 C-39.53678422 129.26752784 -40.87618042 129.26547689 -42.21557617 129.26318359 C-43.57938657 129.26385669 -44.94319685 129.26482676 -46.30700684 129.26608276 C-49.16863138 129.26755947 -52.03022477 129.26540606 -54.8918457 129.26074219 C-58.56751231 129.2550449 -62.24310591 129.25832405 -65.91876984 129.26431465 C-68.73594721 129.267921 -71.55310715 129.26678134 -74.37028503 129.26418686 C-75.7259268 129.26351779 -77.08157014 129.2643453 -78.43721008 129.26666641 C-80.32882661 129.26919411 -82.22044866 129.26466123 -84.11206055 129.25976562 C-85.72969299 129.25857224 -85.72969299 129.25857224 -87.38000488 129.25735474 C-89.80932617 129.13037109 -89.80932617 129.13037109 -90.80932617 128.13037109 C-90.8980389 125.10059305 -90.92451968 122.09370087 -90.90698242 119.06396484 C-90.90556747 118.15534195 -90.90415253 117.24671906 -90.9026947 116.31056213 C-90.8970781 113.39629889 -90.88452282 110.48211129 -90.87182617 107.56787109 C-90.86681331 105.59716907 -90.86225003 103.62646586 -90.8581543 101.65576172 C-90.84795234 96.81391195 -90.82838026 91.97222662 -90.80932617 87.13037109 C-81.23932617 87.13037109 -71.66932617 87.13037109 -61.80932617 87.13037109 C-61.80932617 72.94037109 -61.80932617 58.75037109 -61.80932617 44.13037109 C-51.90932617 44.13037109 -42.00932617 44.13037109 -31.80932617 44.13037109 C-31.82092773 41.11009766 -31.8325293 38.08982422 -31.84448242 34.97802734 C-31.85227226 32.0656749 -31.85834944 29.15332359 -31.86425781 26.2409668 C-31.86929895 24.21068811 -31.87613174 22.18041307 -31.88476562 20.15014648 C-31.89684085 17.23859763 -31.90255652 14.32709659 -31.90698242 11.41552734 C-31.91214371 10.5019899 -31.91730499 9.58845245 -31.92262268 8.64723206 C-31.92281785 6.47461682 -31.87144422 4.30209813 -31.80932617 2.13037109 C-26.96189097 -2.71706411 -6.90751801 -0.01771333 0 0 Z " fill="#03A199" transform="translate(1276.809326171875,188.86962890625)"/>
<path d="M0 0 C18.48 0 36.96 0 56 0 C56 12.33783702 55.82070071 24.68948935 55 37 C36.85 37 18.7 37 0 37 C0 24.79 0 12.58 0 0 Z " fill="#FDFEFC" transform="translate(221,192)"/>
<path d="M0 0 C18.81 0 37.62 0 57 0 C57 28 57 28 56 34 C37.52 34 19.04 34 0 34 C0 22.78 0 11.56 0 0 Z " fill="#FBFDF9" transform="translate(220,113)"/>
<path d="M0 0 C18.15 0 36.3 0 55 0 C55 10.23 55 20.46 55 31 C47.64929388 31.02293115 40.29871141 31.04285198 32.94799805 31.05493164 C30.44636617 31.05996641 27.94473724 31.06679461 25.44311523 31.07543945 C21.85139234 31.08754238 18.25970828 31.09323682 14.66796875 31.09765625 C13.54601608 31.10281754 12.42406342 31.10797882 11.26811218 31.11329651 C9.70683342 31.11340981 9.70683342 31.11340981 8.11401367 31.11352539 C6.7383448 31.11685631 6.7383448 31.11685631 5.33488464 31.12025452 C3 31 3 31 0 30 C0 20.1 0 10.2 0 0 Z " fill="#FFFFFF" transform="translate(221,274)"/>
<path d="M0 0 C1.23878906 0.00249756 2.47757813 0.00499512 3.75390625 0.00756836 C6.07228516 0.02122437 6.07228516 0.02122437 8.4375 0.03515625 C13.3875 0.05578125 18.3375 0.07640625 23.4375 0.09765625 C23.4375 11.97765625 23.4375 23.85765625 23.4375 36.09765625 C10.5675 36.09765625 -2.3025 36.09765625 -15.5625 36.09765625 C-15.5625 24.54765625 -15.5625 12.99765625 -15.5625 1.09765625 C-10.13344612 0.41902452 -5.3900861 -0.02245869 0 0 Z " fill="#FAFCF7" transform="translate(122.5625,120.90234375)"/>
<path d="M0 0 C9.57 0 19.14 0 29 0 C29 8.91 29 17.82 29 27 C19.76 27 10.52 27 1 27 C-0.125 19.125 -0.125 19.125 -0.09765625 14.94140625 C-0.09515869 14.14677979 -0.09266113 13.35215332 -0.09008789 12.53344727 C-0.08098389 11.55303467 -0.07187988 10.57262207 -0.0625 9.5625 C-0.041875 6.406875 -0.02125 3.25125 0 0 Z " fill="#F4FBFA" transform="translate(1493,45)"/>
</svg>
